<svg xmlns="http://www.w3.org/2000/svg" width="367.44" height="69.306" viewBox="0 0 367.44 69.306">
  <g id="Logo" transform="translate(-423.452 -57.123)">
    <g id="sunny" transform="translate(696.095 57.064)">
      <path id="Path_4" data-name="Path 4" d="M75.258,39.427l-7.966-6.315,7.684-6.588a.913.913,0,0,0,.305-.94,1.037,1.037,0,0,0-.758-.706L64.3,22.225l3.78-8.9a.9.9,0,0,0-.175-.966,1.166,1.166,0,0,0-1.024-.347L56.366,13.538l-.855-9.485a.987.987,0,0,0-.622-.805,1.207,1.207,0,0,0-1.091.079l-8.765,5.4L39.708.489a1.164,1.164,0,0,0-1.9,0L31.7,9.949,21.127,4.465a1.209,1.209,0,0,0-1.095,0,.965.965,0,0,0-.55.846l-.026,9.516L8.845,14.039a1.148,1.148,0,0,0-.99.418.891.891,0,0,0-.09.975l4.544,8.606L2.343,27.394a1.013,1.013,0,0,0-.694.757.926.926,0,0,0,.386.915L10.27,35.1,2.88,41.951a.907.907,0,0,0-.264.95,1.049,1.049,0,0,0,.788.679l10.335,2.294L10.35,54.895a.9.9,0,0,0,.217.959,1.174,1.174,0,0,0,1.038.311l10.437-1.888,1.268,9.448a1,1,0,0,0,.656.783,1.2,1.2,0,0,0,1.087-.116l8.522-5.706,5.68,7.787a1.131,1.131,0,0,0,.926.456h.043a1.113,1.113,0,0,0,.926-.522l4.961-8.158,8.994,5.095a1.208,1.208,0,0,0,1.094.041.976.976,0,0,0,.586-.826l.441-9.508L67.8,54.206a1.158,1.158,0,0,0,1.008-.383.894.894,0,0,0,.133-.971l-4.165-8.758,10.1-3.007a1.025,1.025,0,0,0,.727-.732A.919.919,0,0,0,75.258,39.427Z" transform="translate(0)" fill="#ffa600"/>
      <ellipse id="Ellipse_1" data-name="Ellipse 1" cx="22.554" cy="20.255" rx="22.554" ry="20.255" transform="translate(15.837 13.038)" fill="#ffdb2d"/>
      <path id="Path_5" data-name="Path 5" d="M244.49,99.743q-.847,0-1.679.056c11.672.771,20.875,9.52,20.875,20.2s-9.2,19.428-20.875,20.2q.831.055,1.679.056c12.456,0,22.554-9.069,22.554-20.255S256.946,99.743,244.49,99.743Z" transform="translate(-206.099 -86.704)" fill="#ffca00"/>
    </g>
    <text id="WeatherToday" transform="translate(423.624 106.046)" fill="#fff" font-size="41" font-family="Quicksand-Light, Quicksand" font-weight="300"><tspan x="0" y="0">WeatherToday</tspan></text>
    <path id="airplane" d="M11.1,41.573a1.719,1.719,0,0,0-.8,2.215l3.661,8.164a1.656,1.656,0,0,0,.912.879,1.592,1.592,0,0,0,1.236-.05L43.766,39.36,41.261,66.572a1.726,1.726,0,0,0,.536,1.42,6.949,6.949,0,0,0,4.3,1.69,5.046,5.046,0,0,0,1.285-.168c2.245-.609,3.986-2.687,5.174-6.237L63.437,29.793,84.994,19.347c6.345-3.076,9.615-9.313,7.419-14.181A8.251,8.251,0,0,0,86.052.551a14.582,14.582,0,0,0-8.883,1.421L52.291,14.091,25.544,3.222c-3.368-1.318-6.036-1.284-7.907.119A7.005,7.005,0,0,0,15.213,8.8a1.709,1.709,0,0,0,.7,1.336L33.923,23,23.608,28.069l-17.3-4.564a1.6,1.6,0,0,0-1.806.811L.2,32.378a1.745,1.745,0,0,0-.1,1.39,1.658,1.658,0,0,0,.943.993l12.8,5.494ZM18.547,7.955a2.922,2.922,0,0,1,.977-1.826c.928-.693,2.62-.592,4.881.287l23.819,9.651L37.356,21.342ZM3.905,32.362l2.831-5.223L23.38,31.432a1.574,1.574,0,0,0,1.075-.1l54.1-26.25A11.5,11.5,0,0,1,85.5,3.932a5.087,5.087,0,0,1,3.97,2.67c1.365,3.043-1.319,7.488-5.858,9.685L64.868,25.416l1.139-3.5a1.734,1.734,0,0,0-1.049-2.172,1.642,1.642,0,0,0-2.091,1.09L49.477,62.228c-.8,2.35-1.79,3.753-2.9,4.057A2.668,2.668,0,0,1,44.6,65.9L47.85,30.4a1.681,1.681,0,0,0-1.473-1.85A1.652,1.652,0,0,0,44.6,30.08l-.5,5.425L16.172,49.027l-2.293-5.071,4.587-2.231a1.717,1.717,0,0,0,0-3.093Zm0,0" transform="translate(697.797 56.747)" fill="#fff"/>
  </g>
</svg>
